<?xml version="1.0" standalone="no"?><!DOCTYPE svg PUBLIC "-//W3C//DTD SVG 1.1//EN" "http://www.w3.org/Graphics/SVG/1.1/DTD/svg11.dtd"><svg t="1661010266205" class="icon" viewBox="0 0 1024 1024" version="1.1" xmlns="http://www.w3.org/2000/svg" p-id="5854" xmlns:xlink="http://www.w3.org/1999/xlink" width="32" height="32"><defs><style type="text/css">@font-face { font-family: feedback-iconfont; src: url("//at.alicdn.com/t/font_1031158_u69w8yhxdu.woff2?t=1630033759944") format("woff2"), url("//at.alicdn.com/t/font_1031158_u69w8yhxdu.woff?t=1630033759944") format("woff"), url("//at.alicdn.com/t/font_1031158_u69w8yhxdu.ttf?t=1630033759944") format("truetype"); }
</style></defs><path d="M803.607273 360.96s43.985455-11.403636 37.701818-95.185455c0 0 64.698182 53.061818-13.730909 131.956364z" fill="#598CC9" p-id="5855"></path><path d="M269.963636 539.694545A60.509091 60.509091 0 0 1 209.454545 601.367273h-16.290909a60.741818 60.741818 0 0 1-59.578181-61.672728v-39.796363a60.741818 60.741818 0 0 1 59.578181-61.672727H209.454545a60.509091 60.509091 0 0 1 59.578182 61.672727z" fill="#EB6363" p-id="5856"></path><path d="M359.563636 761.949091s5.352727 76.334545 23.272728 84.247273 70.981818 13.032727 84.014545-7.912728a186.181818 186.181818 0 0 0 10.705455-76.334545zM638.370909 761.949091s5.352727 76.334545 23.272727 84.247273 70.981818 13.032727 84.247273-7.912728a189.672727 189.672727 0 0 0 10.472727-76.334545z" fill="#5D5C83" p-id="5857"></path><path d="M901.585455 522.472727c0 177.338182-156.625455 297.192727-349.09091 297.192728s-349.090909-119.854545-349.090909-297.192728 156.858182-321.163636 349.090909-321.163636 349.090909 143.825455 349.09091 321.163636z" fill="#EB6363" p-id="5858"></path><path d="M317.905455 298.356364s-7.447273-131.490909 57.483636-132.887273 75.869091 69.818182 75.869091 69.818182-27.694545 63.767273-133.352727 63.069091z" fill="#D2A154" p-id="5859"></path><path d="M501.294545 225.978182h123.112728v12.101818h-123.112728z" fill="#5D5C83" p-id="5860"></path><path d="M288.349091 416.581818a59.578182 42.123636 0 1 0 119.156364 0 59.578182 42.123636 0 1 0-119.156364 0Z" fill="#FFFFFF" p-id="5861"></path><path d="M364.218182 427.054545m-29.323637 0a29.323636 29.323636 0 1 0 58.647273 0 29.323636 29.323636 0 1 0-58.647273 0Z" fill="#5D5C83" p-id="5862"></path></svg>